<svg width="17" height="21" viewBox="0 0 17 21" fill="none" xmlns="http://www.w3.org/2000/svg">
<path d="M4.36624 10.4218C4.50707 10.3693 4.65851 10.3421 4.81162 10.3416C4.96473 10.3411 5.1164 10.3674 5.25766 10.419C5.39892 10.4706 5.5269 10.5463 5.63404 10.6418C5.74118 10.7373 5.82531 10.8506 5.88145 10.9749C5.93758 11.0993 5.96459 11.2322 5.96088 11.3659C5.95716 11.4995 5.92279 11.6311 5.85981 11.7529C5.79683 11.8748 5.7065 11.9844 5.59418 12.0752C5.48186 12.166 5.34981 12.2363 5.20585 12.2818C4.44017 12.5452 3.78301 13.0037 3.31988 13.5976C2.85675 14.1915 2.60909 14.8933 2.60913 15.6118V17.3518C2.60913 17.617 2.72981 17.8714 2.94462 18.0589C3.15943 18.2465 3.45078 18.3518 3.75457 18.3518H12.9181C13.2219 18.3518 13.5133 18.2465 13.7281 18.0589C13.9429 17.8714 14.0636 17.617 14.0636 17.3518V15.7048C14.0637 14.9633 13.8057 14.2392 13.3237 13.6286C12.8418 13.018 12.1587 12.5497 11.3649 12.2858C11.2201 12.2419 11.0868 12.1731 10.973 12.0834C10.8591 11.9937 10.7671 11.885 10.7023 11.7637C10.6375 11.6424 10.6013 11.5109 10.5957 11.3771C10.5902 11.2434 10.6155 11.11 10.6701 10.9849C10.7247 10.8598 10.8075 10.7456 10.9137 10.649C11.0198 10.5524 11.147 10.4753 11.2879 10.4224C11.4287 10.3695 11.5803 10.3419 11.7336 10.3411C11.887 10.3403 12.0389 10.3664 12.1805 10.4178C13.4079 10.826 14.4644 11.5501 15.2098 12.4943C15.9552 13.4385 16.3544 14.5581 16.3545 15.7048V17.3518C16.3545 18.1475 15.9924 18.9105 15.348 19.4731C14.7036 20.0357 13.8295 20.3518 12.9181 20.3518H3.75457C2.8432 20.3518 1.96916 20.0357 1.32472 19.4731C0.680279 18.9105 0.318237 18.1475 0.318237 17.3518L0.318237 15.6118C0.318395 14.492 0.704569 13.3981 1.42653 12.4724C2.14848 11.5468 3.1728 10.8323 4.36624 10.4218ZM8.33636 0.351807C9.55152 0.351807 10.7169 0.773234 11.5762 1.52338C12.4354 2.27353 12.9181 3.29094 12.9181 4.35181V6.35181C12.9181 7.41267 12.4354 8.43009 11.5762 9.18023C10.7169 9.93038 9.55152 10.3518 8.33636 10.3518C7.12119 10.3518 5.9558 9.93038 5.09655 9.18023C4.2373 8.43009 3.75457 7.41267 3.75457 6.35181V4.35181C3.75457 3.29094 4.2373 2.27353 5.09655 1.52338C5.9558 0.773234 7.12119 0.351807 8.33636 0.351807ZM8.33636 2.35181C7.72877 2.35181 7.14608 2.56252 6.71645 2.93759C6.28683 3.31267 6.04547 3.82137 6.04547 4.35181V6.35181C6.04547 6.88224 6.28683 7.39095 6.71645 7.76602C7.14608 8.14109 7.72877 8.35181 8.33636 8.35181C8.94394 8.35181 9.52664 8.14109 9.95626 7.76602C10.3859 7.39095 10.6272 6.88224 10.6272 6.35181V4.35181C10.6272 3.82137 10.3859 3.31267 9.95626 2.93759C9.52664 2.56252 8.94394 2.35181 8.33636 2.35181Z" fill="#181725"/>
</svg>
    