<svg width="30" height="19" viewBox="0 0 30 19" fill="none" xmlns="http://www.w3.org/2000/svg">
<path d="M19.0214 14.0713C19.8093 14.0713 20.5895 13.9161 21.3175 13.6146C22.0454 13.313 22.7069 12.8711 23.264 12.3139C23.8212 11.7568 24.2631 11.0953 24.5647 10.3674C24.8662 9.63943 25.0214 8.85921 25.0214 8.07128C25.0214 7.28335 24.8662 6.50314 24.5647 5.77518C24.2631 5.04723 23.8212 4.38579 23.264 3.82864C22.7069 3.27149 22.0454 2.82953 21.3175 2.52801C20.5895 2.22648 19.8093 2.07128 19.0214 2.07128C17.4301 2.07128 15.904 2.70342 14.7787 3.82864C13.6535 4.95386 13.0214 6.47998 13.0214 8.07128C13.0214 9.66258 13.6535 11.1887 14.7787 12.3139C15.904 13.4391 17.4301 14.0713 19.0214 14.0713ZM25.3414 12.9773L28.9214 16.5573C29.0168 16.6496 29.0929 16.76 29.1452 16.882C29.1976 17.0041 29.2251 17.1353 29.2261 17.2681C29.2272 17.4009 29.2018 17.5325 29.1514 17.6554C29.101 17.7783 29.0267 17.8899 28.9328 17.9837C28.8388 18.0775 28.7271 18.1517 28.6042 18.2019C28.4812 18.2521 28.3495 18.2773 28.2168 18.276C28.084 18.2748 27.9528 18.2471 27.8308 18.1946C27.7088 18.1421 27.5986 18.0659 27.5064 17.9703L23.9264 14.3903C22.3188 15.6381 20.2962 16.2265 18.2701 16.0355C16.2441 15.8445 14.367 14.8886 13.0209 13.3623C11.6749 11.8361 10.9611 9.85423 11.0248 7.82021C11.0885 5.78618 11.925 3.85291 13.364 2.41393C14.803 0.974952 16.7363 0.13845 18.7703 0.0747088C20.8043 0.0109677 22.7862 0.72478 24.3124 2.07083C25.8387 3.41689 26.7946 5.294 26.9856 7.32004C27.1765 9.34608 26.5882 11.3687 25.3404 12.9763L25.3414 12.9773Z" fill="#181725"/>
<rect x="0.876831" y="0.0707798" width="8.85499" height="2.39923" rx="1.19961" fill="#181725"/>
<rect x="0.876831" y="7.50897" width="6.46414" height="2.39923" rx="1.19961" fill="#181725"/>
<rect x="0.876831" y="14.9476" width="8.85499" height="2.39923" rx="1.19961" fill="#181725"/>
</svg>
