<svg width="21" height="21" viewBox="0 0 21 21" fill="none" xmlns="http://www.w3.org/2000/svg">
<path d="M7.45655 7.58781C7.98655 8.06281 8.68855 8.35181 9.45655 8.35181H11.4565C12.1947 8.35283 12.9071 8.08069 13.4565 7.58781H7.45655ZM7.45655 7.58781C6.90708 8.08069 6.19468 8.35283 5.45655 8.35181L7.45655 7.58781ZM6.50655 2.35181V2.30181H6.45655H3.45655C3.17807 2.30181 2.911 2.41243 2.71408 2.60934C2.51717 2.80626 2.40655 3.07333 2.40655 3.35181V5.35181C2.40655 5.63028 2.51717 5.89736 2.71408 6.09427C2.911 6.29118 3.17807 6.40181 3.45655 6.40181H5.45655C5.73502 6.40181 6.00209 6.29118 6.19901 6.09427C6.39592 5.89736 6.50655 5.63028 6.50655 5.35181V2.35181ZM3.46655 8.30181H3.41655V8.35181V18.3168V18.3668H3.46655H5.45655H5.50655V18.3168V13.3518C5.50655 12.8346 5.71199 12.3386 6.07769 11.9729C6.44338 11.6073 6.93937 11.4018 7.45655 11.4018H9.45655C9.97372 11.4018 10.4697 11.6073 10.8354 11.9729C11.2011 12.3386 11.4065 12.8346 11.4065 13.3518V18.3168V18.3668H11.4565H17.4695H17.5195V18.3168V8.35181V8.30181H17.4695H15.4565C14.7013 8.30181 14.0111 8.01765 13.4899 7.55057L13.4565 7.52065L13.4232 7.55059C12.8829 8.03522 12.1824 8.30281 11.4566 8.30181H11.4565H9.45655C8.7013 8.30181 8.01108 8.01765 7.48992 7.55057L7.45653 7.52065L7.42316 7.55059C6.88289 8.03522 6.1824 8.30281 5.45661 8.30181H5.45655H3.46655ZM1.46471 7.52893C1.16827 7.25816 0.930244 6.92947 0.765445 6.56299C0.594217 6.18222 0.505963 5.76938 0.506546 5.35188V5.35181V3.35181C0.506546 2.56942 0.817349 1.81907 1.37058 1.26584C1.92381 0.712609 2.67416 0.401807 3.45655 0.401807H17.4565C18.2389 0.401807 18.9893 0.712609 19.5425 1.26584C20.0957 1.81907 20.4065 2.56942 20.4065 3.35181V5.35181C20.4065 6.21914 20.0329 6.99984 19.436 7.53972L19.4195 7.55461V7.57681V18.3168C19.4195 18.834 19.2141 19.33 18.8484 19.6957C18.4827 20.0614 17.9867 20.2668 17.4695 20.2668H9.82955V20.2659L9.82026 20.2677C9.70034 20.2904 9.57857 20.3018 9.45653 20.3018H7.45655C7.33452 20.3018 7.21275 20.2904 7.09284 20.2677L7.093 20.2668H7.08355H3.46755C2.95037 20.2668 2.45438 20.0614 2.08869 19.6957C1.72299 19.33 1.51755 18.834 1.51755 18.3168V7.59681V7.47611L1.46471 7.52893ZM9.50655 13.3518V13.3018H9.45655H7.45655H7.40655V13.3518V18.3168V18.3668H7.45655H9.45655V18.3178H9.50655V18.3168V18.2668V13.3518ZM12.5065 2.35181V2.30181H12.4565H8.45655H8.40655V2.35181V5.35181C8.40655 5.63028 8.51717 5.89736 8.71408 6.09427C8.911 6.29118 9.17807 6.40181 9.45655 6.40181H11.4565C11.735 6.40181 12.0021 6.29118 12.199 6.09427C12.3959 5.89736 12.5065 5.63028 12.5065 5.35181V2.35181ZM14.4565 2.30181H14.4065V2.35181V5.35181C14.4065 5.63028 14.5172 5.89736 14.7141 6.09427C14.911 6.29118 15.1781 6.40181 15.4565 6.40181H17.4565C17.735 6.40181 18.0021 6.29118 18.199 6.09427C18.3959 5.89736 18.5065 5.63028 18.5065 5.35181V3.35181C18.5065 3.07333 18.3959 2.80626 18.199 2.60934C18.0021 2.41243 17.735 2.30181 17.4565 2.30181H14.4565ZM14.4565 11.4018H15.4565C15.7085 11.4018 15.9501 11.5019 16.1283 11.6801C16.3065 11.8582 16.4065 12.0999 16.4065 12.3518V15.3518C16.4065 15.6038 16.3065 15.8454 16.1283 16.0236C15.9501 16.2017 15.7085 16.3018 15.4565 16.3018H14.4565C14.2046 16.3018 13.963 16.2017 13.7848 16.0236C13.6066 15.8454 13.5065 15.6038 13.5065 15.3518V12.3518C13.5065 12.0999 13.6066 11.8582 13.7848 11.6801C13.963 11.5019 14.2046 11.4018 14.4565 11.4018Z" fill="#181725" stroke="white" stroke-width="0.1"/>
</svg>
